<svg width="246" height="156" viewBox="0 0 246 156" fill="none" xmlns="http://www.w3.org/2000/svg">
<rect x="96" y="45" width="149.161" height="68" rx="8" fill="#FFA229"/>
<path d="M111 97V58H128.664C132.886 58 136.607 58.8171 139.829 60.4514C143.051 62.0486 145.569 64.2957 147.384 67.1929C149.198 70.09 150.106 73.5257 150.106 77.5C150.106 81.4371 149.198 84.8729 147.384 87.8071C145.569 90.7043 143.051 92.97 139.829 94.6043C136.607 96.2014 132.886 97 128.664 97H111ZM119.999 89.59H128.22C130.812 89.59 133.052 89.1071 134.941 88.1414C136.867 87.1386 138.348 85.7271 139.385 83.9071C140.459 82.0871 140.996 79.9514 140.996 77.5C140.996 75.0114 140.459 72.8757 139.385 71.0929C138.348 69.2729 136.867 67.88 134.941 66.9143C133.052 65.9114 130.812 65.41 128.22 65.41H119.999V89.59Z" fill="white"/>
<path d="M165.169 73.7114H183.888V80.7314H165.169V73.7114ZM165.835 89.7571H186.999V97H156.892V58H186.277V65.2429H165.835V89.7571Z" fill="white"/>
<path d="M205.281 97L188.506 58H198.227L212.891 92.5429H207.17L222.057 58H231L214.169 97H205.281Z" fill="white"/>
<path d="M53.888 125.536C46.8053 125.536 40.2773 124.427 34.304 122.208C28.416 119.904 23.2533 116.661 18.816 112.48C14.464 108.299 11.0507 103.392 8.576 97.76C6.18667 92.128 4.992 85.9413 4.992 79.2C4.992 72.4587 6.18667 66.272 8.576 60.64C11.0507 55.008 14.5067 50.1013 18.944 45.92C23.3813 41.7387 28.5867 38.5387 34.56 36.32C40.5333 34.016 47.104 32.864 54.272 32.864C62.208 32.864 69.3333 34.1867 75.648 36.832C82.048 39.4773 87.424 43.3173 91.776 48.352L78.464 60.64C75.2213 57.2267 71.68 54.7093 67.84 53.088C64 51.3813 59.8187 50.528 55.296 50.528C50.944 50.528 46.976 51.2107 43.392 52.576C39.808 53.9413 36.6933 55.904 34.048 58.464C31.488 61.024 29.4827 64.0533 28.032 67.552C26.6667 71.0507 25.984 74.9333 25.984 79.2C25.984 83.3813 26.6667 87.2213 28.032 90.72C29.4827 94.2187 31.488 97.2907 34.048 99.936C36.6933 102.496 39.7653 104.459 43.264 105.824C46.848 107.189 50.7733 107.872 55.04 107.872C59.136 107.872 63.104 107.232 66.944 105.952C70.8693 104.587 74.6667 102.325 78.336 99.168L90.112 114.144C85.248 117.813 79.5733 120.629 73.088 122.592C66.688 124.555 60.288 125.536 53.888 125.536ZM71.168 111.456L71.168 77.792L90.112 77.792L90.112 114.144L71.168 111.456Z" fill="#191D26"/>
</svg>
