<svg width="16" height="16" viewBox="0 0 16 16" fill="none" xmlns="http://www.w3.org/2000/svg">
<path d="M5.5 9L6.205 9.705L7.5 8.415V14.5H8.5V8.415L9.795 9.705L10.5 9L8 6.5L5.5 9Z" fill="#2480BB"/>
<path d="M11.75 11H11.5V10H11.75C12.3467 10.0239 12.9285 9.80974 13.3673 9.40466C13.8062 8.99958 14.0661 8.43677 14.09 7.84003C14.1139 7.24329 13.8997 6.66151 13.4946 6.22268C13.0895 5.78384 12.5267 5.5239 11.93 5.50003H11.5L11.45 5.09003C11.3391 4.24825 10.9259 3.4755 10.2875 2.91572C9.64915 2.35594 8.82904 2.0473 7.97999 2.0473C7.13094 2.0473 6.31083 2.35594 5.67244 2.91572C5.03406 3.4755 4.62092 4.24825 4.50999 5.09003L4.49999 5.50003H4.06999C3.47325 5.5239 2.91044 5.78384 2.50536 6.22268C2.10028 6.66151 1.88612 7.24329 1.90999 7.84003C1.93386 8.43677 2.1938 8.99958 2.63264 9.40466C3.07147 9.80974 3.65325 10.0239 4.24999 10H4.49999V11H4.24999C3.44819 10.995 2.67657 10.6937 2.08348 10.1541C1.49039 9.61449 1.1177 8.87471 1.03706 8.07697C0.956412 7.27922 1.17351 6.47982 1.64662 5.83246C2.11972 5.18509 2.81543 4.73547 3.59999 4.57003C3.81584 3.56329 4.37041 2.66102 5.17115 2.01376C5.97189 1.36651 6.97037 1.01343 7.99999 1.01343C9.02961 1.01343 10.0281 1.36651 10.8288 2.01376C11.6296 2.66102 12.1841 3.56329 12.4 4.57003C13.1845 4.73547 13.8803 5.18509 14.3534 5.83246C14.8265 6.47982 15.0436 7.27922 14.9629 8.07697C14.8823 8.87471 14.5096 9.61449 13.9165 10.1541C13.3234 10.6937 12.5518 10.995 11.75 11Z" fill="#2480BB"/>
</svg>
